<svg preserveAspectRatio="none" width="100%" height="100%" overflow="visible" style="display: block;" viewBox="0 0 50 50" fill="none" xmlns="http://www.w3.org/2000/svg">
<g id="mage:behance">
<path id="Vector" d="M15.3208 23.1396V19.7958C15.3208 19.5979 15.3208 19.5188 15.5792 19.5188C17.7938 19.5188 19.5937 19.3875 20.4875 19.9146C21.3833 20.4396 21.4208 21.1646 21.4354 21.3813C21.45 21.5979 21.4438 21.9083 21.0271 22.6646C20.6104 23.4208 18.7458 23.4354 17.4 23.4354H15.6188C15.4 23.4354 15.3208 23.3563 15.3208 23.1396ZM21.4583 26.6438C21.6647 26.9071 21.812 27.2118 21.8902 27.5371C21.9684 27.8624 21.9758 28.2008 21.9118 28.5292C21.8477 28.8576 21.7138 29.1684 21.5191 29.4405C21.3244 29.7126 21.0735 29.9397 20.7833 30.1063C20.3571 30.2856 19.8999 30.3797 19.4375 30.3833H15.5979C15.4 30.3833 15.3208 30.3833 15.3208 30.1271V26.1688C15.3208 25.9708 15.3208 25.8917 15.5792 25.8917H18.1313C19.7146 25.8917 20.7042 25.7542 21.4583 26.6438Z" fill="var(--fill-0, #FEE5B2)"/>
<path id="Vector_2" d="M35.3937 24.8104C35.2876 24.5601 35.1265 24.3369 34.9224 24.1573C34.7183 23.9777 34.4764 23.8463 34.2146 23.7729C33.6913 23.63 33.1437 23.5997 32.6079 23.6841C32.072 23.7685 31.5602 23.9656 31.1062 24.2625C30.6538 24.7196 30.3615 25.3109 30.2729 25.9479C30.2729 26.1708 30.2729 26.2125 30.5375 26.2125H35.475C35.7187 26.2125 35.7187 26.2125 35.6979 25.9063C35.6746 25.5234 35.5723 25.1499 35.3937 24.8104ZM35.3937 24.8104C35.2876 24.5601 35.1244 24.3369 34.9203 24.1573C34.7162 23.9777 34.4764 23.8463 34.2146 23.7729C33.6913 23.63 33.1437 23.5997 32.6079 23.6841C32.072 23.7685 31.5602 23.9656 31.1062 24.2625C30.6538 24.7196 30.3594 25.3109 30.2708 25.9479C30.2708 26.1708 30.2708 26.2125 30.5354 26.2125H35.475C35.7187 26.2125 35.7187 26.2125 35.6979 25.9063C35.6746 25.5234 35.5681 25.1499 35.3896 24.8104M37.7083 5.20833H13.3333C11.1784 5.20833 9.11182 6.06436 7.58809 7.58809C6.06436 9.11182 5.20833 11.1784 5.20833 13.3333V37.7083C5.20833 39.8632 6.06436 41.9298 7.58809 43.4536C9.11182 44.9773 11.1784 45.8333 13.3333 45.8333H37.7083C39.8632 45.8333 41.9298 44.9773 43.4536 43.4536C44.9773 41.9298 45.8333 39.8632 45.8333 37.7083V13.3333C45.8333 11.1784 44.9773 9.11182 43.4536 7.58809C41.9298 6.06436 39.8632 5.20833 37.7083 5.20833ZM29.7458 18.1458C29.7458 17.9854 29.7458 17.9229 29.9292 17.9229H36.5104V19.6313C36.5104 19.6313 36.5167 19.7521 36.4083 19.7521H30.0312C29.7458 19.7521 29.7458 19.7521 29.7458 19.4688V18.1458ZM23.6521 33.0771C21.1521 34.4375 16.95 33.8896 11.9729 33.8896V17.05H19.9146C21.9458 17.05 24.3625 17.5583 25.0125 19.7104C25.35 20.6504 25.3295 21.6817 24.9548 22.6075C24.5801 23.5333 23.8775 24.2886 22.9812 24.7292C23.8074 25.0349 24.5287 25.5709 25.0597 26.2737C25.5907 26.9766 25.9093 27.8169 25.9777 28.6951C26.0461 29.5734 25.8614 30.4528 25.4456 31.2294C25.0297 32.006 24.4001 32.6472 23.6313 33.0771H23.6521ZM38.7854 28.2833H30.6604C30.4375 28.2833 30.2333 28.4042 30.2729 28.6896C30.5167 29.8875 31.0646 31.1479 32.3062 31.3312C32.9619 31.5264 33.664 31.4964 34.3006 31.246C34.9372 30.9957 35.4716 30.5394 35.8188 29.95C35.8188 29.95 35.9208 29.8271 35.9812 29.8271H38.6229C38.6229 29.8271 38.7854 29.8271 38.7437 29.9687C38.4652 30.7576 38.0529 31.4926 37.525 32.1417C36.819 32.8161 35.967 33.3187 35.0353 33.6105C34.1035 33.9024 33.1171 33.9756 32.1525 33.8244C31.1879 33.6733 30.2711 33.3019 29.4733 32.7391C28.6754 32.1763 28.018 31.4372 27.5521 30.5792C27.2655 30.007 27.0868 29.3869 27.025 28.75C26.6627 27.1491 26.9396 25.4701 27.7969 24.0704C28.6541 22.6707 30.0239 21.661 31.6146 21.2562C36.225 20.2604 39.15 23.4292 39.15 27.8979C39.1568 27.9501 39.1516 28.0032 39.1346 28.0531C39.1177 28.103 39.0895 28.1483 39.0522 28.1856C39.015 28.2228 38.9697 28.251 38.9198 28.2679C38.8699 28.2849 38.8168 28.2902 38.7646 28.2833H38.7854ZM34.2354 23.7729C33.7126 23.6279 33.1646 23.598 32.6292 23.6854C32.0937 23.7688 31.6146 23.8708 31.1271 24.2625C30.6396 24.6521 30.3812 25.3104 30.2937 25.9479C30.2937 26.1708 30.2937 26.2125 30.5583 26.2125H35.475C35.7187 26.2125 35.7187 26.2125 35.6979 25.9063C35.6746 25.5234 35.5723 25.1499 35.3937 24.8104C35.2876 24.5601 35.1265 24.3369 34.9224 24.1573C34.7183 23.9777 34.4764 23.8463 34.2146 23.7729H34.2354Z" fill="var(--fill-0, #FEE5B2)"/>
</g>
</svg>
