<svg preserveAspectRatio="none" width="100%" height="100%" overflow="visible" style="display: block;" viewBox="0 0 50 50" fill="none" xmlns="http://www.w3.org/2000/svg">
<g id="iconoir:tiktok-solid">
<path id="Vector" fill-rule="evenodd" clip-rule="evenodd" d="M33.3333 45.3125C36.5104 45.3125 39.5574 44.0504 41.8039 41.8039C44.0504 39.5574 45.3125 36.5104 45.3125 33.3333V16.6667C45.3125 13.4896 44.0504 10.4426 41.8039 8.19612C39.5574 5.94959 36.5104 4.6875 33.3333 4.6875H16.6667C13.4896 4.6875 10.4426 5.94959 8.19612 8.19612C5.94959 10.4426 4.6875 13.4896 4.6875 16.6667V33.3333C4.6875 36.5104 5.94959 39.5574 8.19612 41.8039C10.4426 44.0504 13.4896 45.3125 16.6667 45.3125H33.3333ZM28.5646 12.0062C28.4467 11.6551 28.2079 11.3572 27.8907 11.1658C27.5736 10.9744 27.1988 10.9019 26.8331 10.9612C26.4675 11.0205 26.1348 11.2078 25.8944 11.4896C25.6541 11.7715 25.5217 12.1296 25.5208 12.5V31.25C25.5208 32.1771 25.2459 33.0834 24.7308 33.8542C24.2158 34.6251 23.4837 35.2259 22.6272 35.5807C21.7706 35.9355 20.8281 36.0283 19.9188 35.8474C19.0096 35.6666 18.1743 35.2201 17.5188 34.5646C16.8632 33.909 16.4168 33.0738 16.2359 32.1645C16.055 31.2552 16.1479 30.3127 16.5026 29.4562C16.8574 28.5996 17.4582 27.8676 18.2291 27.3525C19 26.8374 19.9062 26.5625 20.8333 26.5625C21.2477 26.5625 21.6452 26.3979 21.9382 26.1049C22.2312 25.8118 22.3958 25.4144 22.3958 25C22.3958 24.5856 22.2312 24.1882 21.9382 23.8951C21.6452 23.6021 21.2477 23.4375 20.8333 23.4375C19.2882 23.4375 17.7777 23.8957 16.4929 24.7541C15.2082 25.6126 14.2068 26.8327 13.6155 28.2603C13.0242 29.6878 12.8695 31.2587 13.1709 32.7741C13.4724 34.2896 14.2165 35.6817 15.3091 36.7743C16.4017 37.8669 17.7937 38.6109 19.3092 38.9124C20.8247 39.2138 22.3955 39.0591 23.823 38.4678C25.2506 37.8765 26.4707 36.8752 27.3292 35.5904C28.1876 34.3056 28.6458 32.7952 28.6458 31.25V17.6208C30.2437 19.1042 32.4937 20.3125 35.4167 20.3125C35.8311 20.3125 36.2285 20.1479 36.5215 19.8549C36.8145 19.5618 36.9792 19.1644 36.9792 18.75C36.9792 18.3356 36.8145 17.9382 36.5215 17.6451C36.2285 17.3521 35.8311 17.1875 35.4167 17.1875C33.3917 17.1875 31.8521 16.3542 30.7104 15.2729C29.5437 14.1646 28.8396 12.8292 28.5646 12.0062Z" fill="var(--fill-0, #FEE5B2)"/>
</g>
</svg>
