<svg preserveAspectRatio="none" width="100%" height="100%" overflow="visible" style="display: block;" viewBox="0 0 12.1 11.575" fill="none" xmlns="http://www.w3.org/2000/svg">
<g id="Container">
<path id="Icon" d="M4.175 11.575L3.1375 9.8L1.1375 9.3625L1.3375 7.325L0 5.7875L1.3375 4.25L1.1375 2.2125L3.1375 1.775L4.175 0L6.05 0.8L7.925 0L8.9625 1.775L10.9625 2.2125L10.7625 4.25L12.1 5.7875L10.7625 7.325L10.9625 9.3625L8.9625 9.8L7.925 11.575L6.05 10.775L4.175 11.575V11.575M4.8375 9.575L6.05 9.0375L7.2875 9.575L7.95 8.425L9.25 8.125L9.15 6.775L10.0125 5.7875L9.15 4.775L9.25 3.425L7.95 3.15L7.2625 2L6.05 2.5375L4.8125 2L4.15 3.15L2.85 3.425L2.95 4.775L2.0875 5.7875L2.95 6.775L2.85 8.15L4.15 8.425L4.8375 9.575V9.575M6.05 5.7875V5.7875V5.7875V5.7875V5.7875V5.7875V5.7875V5.7875V5.7875V5.7875V5.7875V5.7875V5.7875V5.7875V5.7875V5.7875V5.7875V5.7875V5.7875V5.7875V5.7875V5.7875M5.525 7.7L8.4875 4.7375L7.6375 3.8875L5.525 6L4.4625 4.9375L3.6125 5.7875L5.525 7.7V7.7" fill="var(--fill-0, #15803D)"/>
</g>
</svg>
