<svg preserveAspectRatio="none" width="100%" height="100%" overflow="visible" style="display: block;" viewBox="0 0 50 50" fill="none" xmlns="http://www.w3.org/2000/svg">
<g id="ri:instagram-fill">
<path id="Vector" d="M27.1417 4.16667C29.4854 4.17292 30.675 4.18542 31.7021 4.21458L32.1063 4.22917C32.5729 4.24583 33.0333 4.26667 33.5896 4.29167C35.8062 4.39583 37.3187 4.74583 38.6458 5.26042C40.0208 5.78958 41.1792 6.50625 42.3375 7.6625C43.3973 8.70361 44.2171 9.96348 44.7396 11.3542C45.2542 12.6812 45.6042 14.1937 45.7083 16.4125C45.7333 16.9667 45.7542 17.4271 45.7708 17.8958L45.7833 18.3C45.8146 19.325 45.8271 20.5146 45.8313 22.8583L45.8333 24.4125V27.1417C45.8384 28.6613 45.8224 30.1808 45.7854 31.7L45.7729 32.1042C45.7563 32.5729 45.7354 33.0333 45.7104 33.5875C45.6063 35.8062 45.2521 37.3167 44.7396 38.6458C44.2171 40.0365 43.3973 41.2964 42.3375 42.3375C41.2964 43.3973 40.0365 44.217 38.6458 44.7396C37.3187 45.2542 35.8062 45.6042 33.5896 45.7083L32.1063 45.7708L31.7021 45.7833C30.675 45.8125 29.4854 45.8271 27.1417 45.8312L25.5875 45.8333H22.8604C21.3401 45.8387 19.8198 45.8227 18.3 45.7854L17.8958 45.7729C17.4013 45.7542 16.9068 45.7327 16.4125 45.7083C14.1958 45.6042 12.6833 45.2542 11.3542 44.7396C9.96423 44.2168 8.70509 43.397 7.66458 42.3375C6.60405 41.2966 5.78356 40.0367 5.26042 38.6458C4.74583 37.3187 4.39583 35.8062 4.29167 33.5875L4.22917 32.1042L4.21875 31.7C4.18035 30.1809 4.16298 28.6613 4.16667 27.1417V22.8583C4.1609 21.3387 4.17618 19.8192 4.2125 18.3L4.22708 17.8958C4.24375 17.4271 4.26458 16.9667 4.28958 16.4125C4.39375 14.1937 4.74375 12.6833 5.25833 11.3542C5.7827 9.96291 6.60463 8.70299 7.66667 7.6625C8.70657 6.60323 9.96497 5.78349 11.3542 5.26042C12.6833 4.74583 14.1938 4.39583 16.4125 4.29167C16.9667 4.26667 17.4292 4.24583 17.8958 4.22917L18.3 4.21667C19.8192 4.17965 21.3387 4.16368 22.8583 4.16875L27.1417 4.16667ZM25 14.5833C22.2373 14.5833 19.5878 15.6808 17.6343 17.6343C15.6808 19.5878 14.5833 22.2373 14.5833 25C14.5833 27.7627 15.6808 30.4122 17.6343 32.3657C19.5878 34.3192 22.2373 35.4167 25 35.4167C27.7627 35.4167 30.4122 34.3192 32.3657 32.3657C34.3192 30.4122 35.4167 27.7627 35.4167 25C35.4167 22.2373 34.3192 19.5878 32.3657 17.6343C30.4122 15.6808 27.7627 14.5833 25 14.5833ZM25 18.75C25.8208 18.7499 26.6335 18.9114 27.3919 19.2254C28.1502 19.5393 28.8393 19.9996 29.4197 20.5798C30.0002 21.1601 30.4607 21.849 30.7749 22.6073C31.0891 23.3655 31.2509 24.1782 31.251 24.999C31.2512 25.8197 31.0897 26.6325 30.7757 27.3908C30.4617 28.1491 30.0015 28.8382 29.4212 29.4187C28.8409 29.9991 28.152 30.4596 27.3938 30.7738C26.6355 31.0881 25.8228 31.2499 25.0021 31.25C23.3445 31.25 21.7548 30.5915 20.5827 29.4194C19.4106 28.2473 18.7521 26.6576 18.7521 25C18.7521 23.3424 19.4106 21.7527 20.5827 20.5806C21.7548 19.4085 23.3445 18.75 25.0021 18.75M35.9396 11.4583C35.2489 11.4583 34.5865 11.7327 34.0982 12.2211C33.6098 12.7095 33.3354 13.3718 33.3354 14.0625C33.3354 14.7532 33.6098 15.4155 34.0982 15.9039C34.5865 16.3923 35.2489 16.6667 35.9396 16.6667C36.6303 16.6667 37.2926 16.3923 37.781 15.9039C38.2694 15.4155 38.5438 14.7532 38.5438 14.0625C38.5438 13.3718 38.2694 12.7095 37.781 12.2211C37.2926 11.7327 36.6303 11.4583 35.9396 11.4583Z" fill="var(--fill-0, #FEE5B2)"/>
</g>
</svg>
