<svg preserveAspectRatio="none" width="100%" height="100%" overflow="visible" style="display: block;" viewBox="0 0 28 28" fill="none" xmlns="http://www.w3.org/2000/svg">
<g id="material-symbols-light:download">
<path id="Vector" d="M14 18.599L9.44986 14.0501L10.3601 13.1244L13.3571 16.1214V5H14.6429V16.1214L17.6386 13.1257L18.5501 14.0501L14 18.599ZM7.07771 23C6.48543 23 5.99129 22.802 5.59529 22.406C5.19929 22.01 5.00086 21.5154 5 20.9223V17.807H6.28571V20.9223C6.28571 21.1203 6.368 21.302 6.53257 21.4674C6.69714 21.6329 6.87843 21.7151 7.07643 21.7143H20.9236C21.1207 21.7143 21.302 21.632 21.4674 21.4674C21.6329 21.3029 21.7151 21.1211 21.7143 20.9223V17.807H23V20.9223C23 21.5146 22.802 22.0087 22.406 22.4047C22.01 22.8007 21.5154 22.9991 20.9223 23H7.07771Z" fill="var(--fill-0, #FFE6B2)"/>
</g>
</svg>
